<?xml version="1.0" encoding="UTF-8"?>
<svg id="Layer_2" data-name="Layer 2" xmlns="http://www.w3.org/2000/svg" viewBox="0 0 6.92 14.89">
  <defs>
    <style>
      .cls-1 {
        fill: #3a3a3b;
      }
    </style>
  </defs>
  <g id="Layer_1-2" data-name="Layer 1">
    <path class="cls-1" d="m0,4.83v2.63h1.45v7.43h3.1v-7.44h2.09c.09-.88.18-1.74.27-2.64h-2.36c0-.55-.01-1.07,0-1.58.02-.46.25-.66.71-.67.26,0,.52,0,.79,0h.79V.01c-.9,0-1.78-.03-2.65,0-1.39.06-2.4.91-2.64,2.28-.12.71-.08,1.44-.11,2.16,0,.11,0,.23,0,.37H0Z"/>
  </g>
</svg>