<?xml version="1.0" encoding="UTF-8"?>
<svg id="Layer_2" data-name="Layer 2" xmlns="http://www.w3.org/2000/svg" viewBox="0 0 245.93 55.51">
  <defs>
    <style>
      .cls-1 {
        fill: #282827;
      }

      .cls-2 {
        fill: #211e1f;
      }
    </style>
  </defs>
  <g id="Layer_1-2" data-name="Layer 1">
    <g>
      <g>
        <g>
          <g>
            <path class="cls-1" d="m5.03,11.84l7.98,7.98c.92.92,2.17,1.44,3.46,1.44h3.39s-8-8-8-8c-.92-.92-2.18-1.44-3.48-1.44h-3.36Z"/>
            <path class="cls-1" d="m16.24,32.51l7.45-7.45,2.71,2.71-3.31,3.31c-1.01,1.01-2.4,1.56-3.83,1.52l-3.02-.08Z"/>
            <path class="cls-1" d="m.01,32.56l2.77-2.77c.91-.91,2.14-1.41,3.43-1.4l3.38.04-2.78,2.78c-.91.91-2.15,1.41-3.45,1.4l-3.35-.05Z"/>
            <path class="cls-1" d="m2.8,37.87l7.98-7.98c.92-.92,2.17-1.44,3.46-1.44h3.39s-8,8-8,8c-.92.92-2.18,1.44-3.48,1.44h-3.36Z"/>
            <path class="cls-1" d="m5.05,43.7l7.98-7.98c.92-.92,2.17-1.44,3.46-1.44h3.39s-8,8-8,8c-.92.92-2.18,1.44-3.48,1.44h-3.36Z"/>
            <path class="cls-1" d="m16.22,23.03l7.45,7.45,2.71-2.71-3.31-3.31c-1.01-1.01-2.4-1.56-3.83-1.52l-3.02.08Z"/>
            <path class="cls-1" d="m0,22.99l2.77,2.77c.91.91,2.14,1.41,3.43,1.4l3.38-.04-2.78-2.78c-.91-.91-2.15-1.41-3.45-1.4l-3.35.05Z"/>
            <path class="cls-1" d="m2.79,17.67l7.98,7.98c.92.92,2.17,1.44,3.46,1.44h3.39s-8-8-8-8c-.92-.92-2.18-1.44-3.48-1.44h-3.36Z"/>
            <path class="cls-1" d="m22.99,39.27l7.45-7.45-2.71-2.71-3.31,3.31c-1.01,1.01-1.56,2.4-1.52,3.83l.08,3.02Z"/>
            <path class="cls-1" d="m22.95,55.5l2.77-2.77c.91-.91,1.41-2.14,1.4-3.43l-.04-3.38-2.78,2.78c-.91.91-1.41,2.15-1.4,3.45l.05,3.35Z"/>
            <path class="cls-1" d="m17.64,52.71l7.98-7.98c.92-.92,1.44-2.17,1.44-3.46v-3.39s-8,8-8,8c-.92.92-1.44,2.18-1.44,3.48v3.36Z"/>
            <path class="cls-1" d="m11.8,50.46l7.98-7.98c.92-.92,1.44-2.17,1.44-3.46v-3.39s-8,8-8,8c-.92.92-1.44,2.18-1.44,3.48v3.36Z"/>
            <path class="cls-1" d="m32.48,39.28l-7.45-7.45,2.71-2.71,3.31,3.31c1.01,1.01,1.56,2.4,1.52,3.83l-.08,3.02Z"/>
            <path class="cls-1" d="m32.52,55.51l-2.77-2.77c-.91-.91-1.41-2.14-1.4-3.43l.04-3.38,2.78,2.78c.91.91,1.41,2.15,1.4,3.45l-.05,3.35Z"/>
            <path class="cls-1" d="m37.83,52.72l-7.98-7.98c-.92-.92-1.44-2.17-1.44-3.46v-3.39s8,8,8,8c.92.92,1.44,2.18,1.44,3.48v3.36Z"/>
            <path class="cls-1" d="m43.67,50.47l-7.98-7.98c-.92-.92-1.44-2.17-1.44-3.46v-3.39s8,8,8,8c.92.92,1.44,2.18,1.44,3.48v3.36Z"/>
          </g>
          <g>
            <path class="cls-1" d="m11.84,5.03l7.98,7.98c.92.92,1.44,2.17,1.44,3.46v3.39s-8-8-8-8c-.92-.92-1.44-2.18-1.44-3.48v-3.36Z"/>
            <path class="cls-1" d="m32.51,16.24l-7.45,7.45,2.71,2.71,3.31-3.31c1.01-1.01,1.56-2.4,1.52-3.83l-.08-3.02Z"/>
            <path class="cls-1" d="m32.56.01l-2.77,2.77c-.91.91-1.41,2.14-1.4,3.43l.04,3.38,2.78-2.78c.91-.91,1.41-2.15,1.4-3.45l-.05-3.35Z"/>
            <path class="cls-1" d="m37.87,2.8l-7.98,7.98c-.92.92-1.44,2.17-1.44,3.46v3.39s8-8,8-8c.92-.92,1.44-2.18,1.44-3.48v-3.36Z"/>
            <path class="cls-1" d="m43.7,5.05l-7.98,7.98c-.92.92-1.44,2.17-1.44,3.46v3.39s8-8,8-8c.92-.92,1.44-2.18,1.44-3.48v-3.36Z"/>
            <path class="cls-1" d="m23.03,16.22l7.45,7.45-2.71,2.71-3.31-3.31c-1.01-1.01-1.56-2.4-1.52-3.83l.08-3.02Z"/>
            <path class="cls-1" d="m22.99,0l2.77,2.77c.91.91,1.41,2.14,1.4,3.43l-.04,3.38-2.78-2.78c-.91-.91-1.41-2.15-1.4-3.45l.05-3.35Z"/>
            <path class="cls-1" d="m17.67,2.79l7.98,7.98c.92.92,1.44,2.17,1.44,3.46v3.39s-8-8-8-8c-.92-.92-1.44-2.18-1.44-3.48v-3.36Z"/>
            <path class="cls-1" d="m39.27,22.99l-7.45,7.45-2.71-2.71,3.31-3.31c1.01-1.01,2.4-1.56,3.83-1.52l3.02.08Z"/>
            <path class="cls-1" d="m55.5,22.95l-2.77,2.77c-.91.91-2.14,1.41-3.43,1.4l-3.38-.04,2.78-2.78c.91-.91,2.15-1.41,3.45-1.4l3.35.05Z"/>
            <path class="cls-1" d="m52.71,17.64l-7.98,7.98c-.92.92-2.17,1.44-3.46,1.44h-3.39s8-8,8-8c.92-.92,2.18-1.44,3.48-1.44h3.36Z"/>
            <path class="cls-1" d="m50.46,11.8l-7.98,7.98c-.92.92-2.17,1.44-3.46,1.44h-3.39s8-8,8-8c.92-.92,2.18-1.44,3.48-1.44h3.36Z"/>
            <path class="cls-1" d="m39.28,32.48l-7.45-7.45-2.71,2.71,3.31,3.31c1.01,1.01,2.4,1.56,3.83,1.52l3.02-.08Z"/>
            <path class="cls-1" d="m55.51,32.52l-2.77-2.77c-.91-.91-2.14-1.41-3.43-1.4l-3.38.04,2.78,2.78c.91.91,2.15,1.41,3.45,1.4l3.35-.05Z"/>
            <path class="cls-1" d="m52.72,37.83l-7.98-7.98c-.92-.92-2.17-1.44-3.46-1.44h-3.39s8,8,8,8c.92.92,2.18,1.44,3.48,1.44h3.36Z"/>
            <path class="cls-1" d="m50.47,43.67l-7.98-7.98c-.92-.92-2.17-1.44-3.46-1.44h-3.39s8,8,8,8c.92.92,2.18,1.44,3.48,1.44h3.36Z"/>
          </g>
        </g>
        <g>
          <g>
            <path class="cls-1" d="m58.74,29.48c0-3.44,2.2-6.23,5.73-6.23,2.8,0,4.65,1.6,5.07,4.13h-1.88c-.28-1.6-1.4-2.59-3.19-2.59-2.52,0-3.83,2.09-3.83,4.7s1.31,4.68,3.83,4.68c1.93,0,3.07-1.1,3.23-2.93h1.83c-.25,2.84-2.11,4.49-5.07,4.49-3.53,0-5.73-2.8-5.73-6.23Z"/>
            <path class="cls-1" d="m70.29,29.48c0-3.44,2.2-6.23,5.73-6.23s5.71,2.8,5.71,6.23-2.15,6.23-5.71,6.23-5.73-2.8-5.73-6.23Zm9.53,0c0-2.61-1.28-4.7-3.8-4.7s-3.83,2.09-3.83,4.7,1.31,4.68,3.83,4.68,3.8-2.06,3.8-4.68Z"/>
            <path class="cls-1" d="m85.1,25.1h.05c.85-1.12,2.04-1.83,3.76-1.83,2.48,0,3.99,1.35,3.99,3.8v8.32h-1.86v-8.16c0-1.54-1.01-2.41-2.68-2.41-1.88,0-3.25,1.33-3.25,3.28v7.29h-1.86v-11.85h1.86v1.56Z"/>
            <path class="cls-1" d="m94.25,31.54h1.9c.25,2.06,1.63,2.64,3.39,2.64,1.95,0,2.75-.85,2.75-1.95,0-1.33-.92-1.67-3.09-2.13-2.34-.48-4.42-.96-4.42-3.55,0-1.97,1.51-3.25,4.26-3.25,2.93,0,4.38,1.4,4.65,3.71h-1.9c-.18-1.56-1.03-2.25-2.8-2.25s-2.38.76-2.38,1.7c0,1.28,1.15,1.54,3.19,1.95,2.38.48,4.38,1.01,4.38,3.74,0,2.38-1.95,3.6-4.68,3.6-3.25,0-5.07-1.54-5.25-4.19Z"/>
            <path class="cls-1" d="m105.18,29.48c0-3.44,2.2-6.23,5.73-6.23,2.8,0,4.65,1.6,5.07,4.13h-1.88c-.28-1.6-1.4-2.59-3.19-2.59-2.52,0-3.83,2.09-3.83,4.7s1.31,4.68,3.83,4.68c1.93,0,3.07-1.1,3.23-2.93h1.83c-.25,2.84-2.11,4.49-5.07,4.49-3.53,0-5.73-2.8-5.73-6.23Z"/>
            <path class="cls-1" d="m117.4,23.54h1.86v11.85h-1.86v-11.85Z"/>
            <path class="cls-1" d="m120.76,29.48c0-3.44,2.2-6.23,5.73-6.23s5.71,2.8,5.71,6.23-2.15,6.23-5.71,6.23-5.73-2.8-5.73-6.23Zm9.53,0c0-2.61-1.28-4.7-3.8-4.7s-3.83,2.09-3.83,4.7,1.31,4.68,3.83,4.68,3.8-2.06,3.8-4.68Z"/>
            <path class="cls-1" d="m141.25,35.39v-1.63h-.05c-.85,1.15-1.86,1.9-3.57,1.9-2.43,0-3.99-1.47-3.99-3.92v-8.2h1.86v8.16c0,1.54.99,2.43,2.66,2.43,1.88,0,3.09-1.42,3.09-3.3v-7.29h1.86v11.85h-1.86Z"/>
            <path class="cls-1" d="m144.53,31.54h1.9c.25,2.06,1.63,2.64,3.39,2.64,1.95,0,2.75-.85,2.75-1.95,0-1.33-.92-1.67-3.09-2.13-2.34-.48-4.42-.96-4.42-3.55,0-1.97,1.51-3.25,4.26-3.25,2.93,0,4.38,1.4,4.65,3.71h-1.9c-.18-1.56-1.03-2.25-2.8-2.25s-2.38.76-2.38,1.7c0,1.28,1.15,1.54,3.19,1.95,2.38.48,4.38,1.01,4.38,3.74,0,2.38-1.95,3.6-4.68,3.6-3.25,0-5.07-1.54-5.25-4.19Z"/>
            <path class="cls-1" d="m158.54,29.48c0-3.44,2.2-6.23,5.73-6.23,2.8,0,4.65,1.6,5.07,4.13h-1.88c-.28-1.6-1.4-2.59-3.19-2.59-2.52,0-3.83,2.09-3.83,4.7s1.31,4.68,3.83,4.68c1.92,0,3.07-1.1,3.23-2.93h1.83c-.25,2.84-2.11,4.49-5.07,4.49-3.53,0-5.73-2.8-5.73-6.23Z"/>
            <path class="cls-1" d="m170.09,29.48c0-3.44,2.2-6.23,5.73-6.23s5.71,2.8,5.71,6.23-2.15,6.23-5.71,6.23-5.73-2.8-5.73-6.23Zm9.53,0c0-2.61-1.28-4.7-3.8-4.7s-3.83,2.09-3.83,4.7,1.31,4.68,3.83,4.68,3.8-2.06,3.8-4.68Z"/>
            <path class="cls-1" d="m183.11,19.94l1.86-.94v16.39h-1.86v-15.45Z"/>
            <path class="cls-1" d="m187.28,19.94l1.86-.94v16.39h-1.86v-15.45Z"/>
            <path class="cls-1" d="m190.72,29.48c0-3.44,2.25-6.23,5.62-6.23,3.55,0,5.46,2.75,5.46,6.67h-9.17c.14,2.41,1.44,4.24,3.83,4.24,1.72,0,2.87-.83,3.28-2.43h1.81c-.55,2.54-2.41,3.99-5.09,3.99-3.62,0-5.73-2.8-5.73-6.23Zm1.95-.96h7.13c-.11-2.36-1.33-3.8-3.46-3.8s-3.39,1.65-3.67,3.8Z"/>
            <path class="cls-1" d="m202.59,29.48c0-3.44,2.2-6.23,5.73-6.23,2.8,0,4.65,1.6,5.07,4.13h-1.88c-.28-1.6-1.4-2.59-3.19-2.59-2.52,0-3.83,2.09-3.83,4.7s1.31,4.68,3.83,4.68c1.93,0,3.07-1.1,3.23-2.93h1.83c-.25,2.84-2.11,4.49-5.07,4.49-3.53,0-5.73-2.8-5.73-6.23Z"/>
            <path class="cls-1" d="m214.05,23.54h1.72v-3.74h1.86v3.74h2.29v1.51h-2.29v7.7c0,.83.44,1.1,1.19,1.1.37,0,.78-.09.99-.16h.07v1.6c-.44.09-.94.16-1.49.16-1.51,0-2.61-.62-2.61-2.29v-8.11h-1.72v-1.51Z"/>
            <path class="cls-1" d="m221.5,23.54h1.86v11.85h-1.86v-11.85Z"/>
            <path class="cls-1" d="m224.32,23.54h1.99l2.45,7.52c.34,1.05.78,2.5.78,2.5h.05s.44-1.47.78-2.5l2.5-7.52h1.92l-4.26,11.85h-2.06l-4.15-11.85Z"/>
            <path class="cls-1" d="m234.86,29.48c0-3.44,2.25-6.23,5.62-6.23,3.55,0,5.46,2.75,5.46,6.67h-9.17c.14,2.41,1.44,4.24,3.83,4.24,1.72,0,2.87-.83,3.28-2.43h1.81c-.55,2.54-2.41,3.99-5.09,3.99-3.62,0-5.73-2.8-5.73-6.23Zm1.95-.96h7.13c-.11-2.36-1.33-3.8-3.46-3.8s-3.39,1.65-3.67,3.8Z"/>
          </g>
          <path class="cls-1" d="m122.12,20.49h-1.92c-.63,0-1.23.25-1.67.69l-1.16,1.16h1.93c.63,0,1.24-.25,1.68-.7l1.14-1.15Z"/>
          <path class="cls-1" d="m226.21,20.49h-1.92c-.63,0-1.23.25-1.67.69l-1.16,1.16h1.93c.63,0,1.24-.25,1.68-.7l1.14-1.15Z"/>
        </g>
      </g>
      <g>
        <path class="cls-2" d="m123.67,46.23l-.24-.65h-1.64l-.24.65h-.93l1.48-3.83h1.02l1.48,3.83h-.93Zm-1.06-3.02l-.6,1.65h1.2l-.6-1.65Z"/>
        <path class="cls-2" d="m128.55,44.32c0-1.21.92-1.98,2.05-1.98.79,0,1.29.4,1.58.86l-.67.37c-.18-.27-.51-.5-.91-.5-.7,0-1.21.53-1.21,1.26s.51,1.26,1.21,1.26c.34,0,.66-.15.81-.29v-.46h-1.01v-.71h1.83v1.47c-.39.44-.94.72-1.63.72-1.13,0-2.05-.78-2.05-1.98Z"/>
        <path class="cls-2" d="m133.84,44.32c0-1.16.84-1.98,2.01-1.98s2,.83,2,1.98-.84,1.98-2,1.98-2.01-.83-2.01-1.98Zm3.17,0c0-.72-.45-1.26-1.16-1.26s-1.17.54-1.17,1.26.45,1.26,1.17,1.26,1.16-.55,1.16-1.26Z"/>
        <path class="cls-2" d="m139.57,46.23v-3.83h1.51c1.2,0,2.03.76,2.03,1.91s-.83,1.92-2.03,1.92h-1.52Zm2.71-1.92c0-.67-.41-1.2-1.2-1.2h-.7v2.4h.7c.76,0,1.2-.55,1.2-1.2Z"/>
        <path class="cls-2" d="m147.02,46.23l-.75-1.36h-.6v1.36h-.82v-3.83h1.79c.8,0,1.29.52,1.29,1.24,0,.67-.43,1.04-.85,1.14l.87,1.46h-.94Zm.08-2.6c0-.32-.25-.51-.57-.51h-.86v1.03h.86c.32,0,.57-.2.57-.52Z"/>
        <path class="cls-2" d="m149.7,46.23v-3.83h2.71v.72h-1.9v.8h1.86v.72h-1.86v.87h1.9v.72h-2.71Z"/>
        <path class="cls-2" d="m153.86,45.92l.36-.62c.15.14.34.28.61.28.36,0,.6-.25.6-.61v-2.56h.82v2.58c0,.9-.57,1.33-1.35,1.33-.39,0-.76-.11-1.03-.38Z"/>
        <path class="cls-2" d="m160.78,46.23v-3.83h1.51c1.2,0,2.03.76,2.03,1.91s-.83,1.92-2.03,1.92h-1.52Zm2.71-1.92c0-.67-.41-1.2-1.2-1.2h-.7v2.4h.7c.76,0,1.2-.55,1.2-1.2Z"/>
        <path class="cls-2" d="m166.06,46.23v-3.83h2.71v.72h-1.9v.8h1.86v.72h-1.86v.87h1.9v.72h-2.71Z"/>
        <path class="cls-2" d="m170.3,45.69l.45-.64c.27.28.69.52,1.22.52.45,0,.67-.2.67-.43,0-.67-2.21-.2-2.21-1.64,0-.64.55-1.17,1.45-1.17.61,0,1.12.18,1.49.53l-.45.61c-.31-.29-.72-.42-1.12-.42-.34,0-.54.15-.54.38,0,.6,2.2.2,2.2,1.63,0,.7-.51,1.23-1.53,1.23-.74,0-1.27-.25-1.63-.61Z"/>
        <path class="cls-2" d="m175.16,46.23v-3.83h.82v3.83h-.82Z"/>
        <path class="cls-2" d="m177.7,44.32c0-1.21.92-1.98,2.05-1.98.79,0,1.29.4,1.58.86l-.67.37c-.18-.27-.51-.5-.91-.5-.7,0-1.21.53-1.21,1.26s.51,1.26,1.21,1.26c.34,0,.66-.15.81-.29v-.46h-1.01v-.71h1.83v1.47c-.39.44-.94.72-1.63.72-1.13,0-2.05-.78-2.05-1.98Z"/>
        <path class="cls-2" d="m185.82,46.23l-1.83-2.5v2.5h-.82v-3.83h.84l1.78,2.41v-2.41h.82v3.83h-.79Z"/>
        <path class="cls-2" d="m191.12,46.23v-3.83h.82v3.12h1.62v.72h-2.44Z"/>
        <path class="cls-2" d="m197.91,46.23l-.24-.65h-1.64l-.24.65h-.93l1.48-3.83h1.02l1.48,3.83h-.93Zm-1.06-3.02l-.6,1.65h1.2l-.6-1.65Z"/>
        <path class="cls-2" d="m200.35,46.23v-3.83h2.02c.73,0,1.1.47,1.1.98,0,.48-.3.8-.66.88.41.06.74.46.74.94,0,.58-.38,1.04-1.12,1.04h-2.08Zm2.29-2.71c0-.24-.17-.4-.45-.4h-1.02v.8h1.02c.28,0,.45-.16.45-.4Zm.07,1.56c0-.24-.17-.44-.49-.44h-1.06v.87h1.06c.3,0,.49-.16.49-.44Z"/>
        <path class="cls-2" d="m207.94,46.23v-3.83h.82v3.83h-.82Z"/>
        <path class="cls-2" d="m213.31,46.23l-1.83-2.5v2.5h-.82v-3.83h.84l1.78,2.41v-2.41h.82v3.83h-.79Z"/>
        <path class="cls-2" d="m216.01,46.23v-3.83h.82v3.83h-.82Z"/>
        <path class="cls-2" d="m219.62,46.23v-3.12h-1.12v-.72h3.06v.72h-1.12v3.12h-.82Z"/>
        <path class="cls-2" d="m223.23,46.23v-3.83h.82v3.83h-.82Z"/>
        <path class="cls-2" d="m228.61,46.23l-.24-.65h-1.64l-.24.65h-.93l1.48-3.83h1.02l1.48,3.83h-.93Zm-1.06-3.02l-.6,1.65h1.2l-.6-1.65Z"/>
        <path class="cls-2" d="m231.56,46.23v-3.12h-1.12v-.72h3.06v.72h-1.12v3.12h-.82Z"/>
        <path class="cls-2" d="m235.17,46.23v-3.83h.82v3.83h-.82Z"/>
        <path class="cls-2" d="m238.97,46.23l-1.48-3.83h.93l1.06,2.94,1.06-2.94h.93l-1.48,3.83h-1.02Z"/>
        <path class="cls-2" d="m242.98,46.23v-3.83h2.71v.72h-1.9v.8h1.86v.72h-1.86v.87h1.9v.72h-2.71Z"/>
      </g>
    </g>
  </g>
</svg>