<?xml version="1.0" encoding="UTF-8"?>
<svg id="Layer_2" data-name="Layer 2" xmlns="http://www.w3.org/2000/svg" viewBox="0 0 414.11 93.46">
  <defs>
    <style>
      .cls-1 {
        fill: #282828;
      }
    </style>
  </defs>
  <g id="Layer_1-2" data-name="Layer 1">
    <g>
      <g>
        <g>
          <path class="cls-1" d="m8.48,19.94l13.44,13.44c1.55,1.55,3.65,2.42,5.82,2.42h5.71s-13.46-13.47-13.46-13.47c-1.56-1.56-3.67-2.43-5.85-2.42l-5.66.02Z"/>
          <path class="cls-1" d="m27.34,54.75l12.55-12.55,4.56,4.56-5.57,5.57c-1.7,1.7-4.04,2.63-6.45,2.56l-5.08-.14Z"/>
          <path class="cls-1" d="m.02,54.82l4.66-4.66c1.53-1.53,3.61-2.37,5.77-2.35l5.69.06-4.68,4.68c-1.53,1.53-3.63,2.38-5.8,2.35l-5.64-.08Z"/>
          <path class="cls-1" d="m4.71,63.77l13.44-13.44c1.55-1.55,3.65-2.42,5.82-2.42h5.71s-13.46,13.47-13.46,13.47c-1.56,1.56-3.67,2.43-5.85,2.42l-5.66-.02Z"/>
          <path class="cls-1" d="m8.5,73.59l13.44-13.44c1.55-1.55,3.65-2.42,5.82-2.42h5.71s-13.46,13.47-13.46,13.47c-1.56,1.56-3.67,2.43-5.85,2.42l-5.66-.02Z"/>
          <path class="cls-1" d="m27.32,38.78l12.55,12.55,4.56-4.56-5.57-5.57c-1.7-1.7-4.04-2.63-6.45-2.56l-5.08.14Z"/>
          <path class="cls-1" d="m0,38.71l4.66,4.66c1.53,1.53,3.61,2.37,5.77,2.35l5.69-.06-4.68-4.68c-1.53-1.53-3.63-2.38-5.8-2.35l-5.64.08Z"/>
          <path class="cls-1" d="m4.69,29.76l13.44,13.44c1.55,1.55,3.65,2.42,5.82,2.42h5.71s-13.46-13.47-13.46-13.47c-1.56-1.56-3.67-2.43-5.85-2.42l-5.66.02Z"/>
          <path class="cls-1" d="m38.72,66.13l12.55-12.55-4.56-4.56-5.57,5.57c-1.7,1.7-2.63,4.04-2.56,6.45l.14,5.08Z"/>
          <path class="cls-1" d="m38.65,93.45l4.66-4.66c1.53-1.53,2.37-3.61,2.35-5.77l-.06-5.69-4.68,4.68c-1.53,1.53-2.38,3.63-2.35,5.8l.08,5.64Z"/>
          <path class="cls-1" d="m29.7,88.76l13.44-13.44c1.55-1.55,2.42-3.65,2.42-5.82v-5.71s-13.47,13.46-13.47,13.46c-1.56,1.56-2.43,3.67-2.42,5.85l.02,5.66Z"/>
          <path class="cls-1" d="m19.87,84.97l13.44-13.44c1.55-1.55,2.42-3.65,2.42-5.82v-5.71s-13.47,13.46-13.47,13.46c-1.56,1.56-2.43,3.67-2.42,5.85l.02,5.66Z"/>
          <path class="cls-1" d="m54.68,66.15l-12.55-12.55,4.56-4.56,5.57,5.57c1.7,1.7,2.63,4.04,2.56,6.45l-.14,5.08Z"/>
          <path class="cls-1" d="m54.75,93.46l-4.66-4.66c-1.53-1.53-2.37-3.61-2.35-5.77l.06-5.69,4.68,4.68c1.53,1.53,2.38,3.63,2.35,5.8l-.08,5.64Z"/>
          <path class="cls-1" d="m63.7,88.77l-13.44-13.44c-1.55-1.55-2.42-3.65-2.42-5.82v-5.71s13.47,13.46,13.47,13.46c1.56,1.56,2.43,3.67,2.42,5.85l-.02,5.66Z"/>
          <path class="cls-1" d="m73.53,84.99l-13.44-13.44c-1.55-1.55-2.42-3.65-2.42-5.82v-5.71s13.47,13.46,13.47,13.46c1.56,1.56,2.43,3.67,2.42,5.85l-.02,5.66Z"/>
        </g>
        <g>
          <path class="cls-1" d="m19.94,8.48l13.44,13.44c1.55,1.55,2.42,3.65,2.42,5.82v5.71s-13.47-13.46-13.47-13.46c-1.56-1.56-2.43-3.67-2.42-5.85l.02-5.66Z"/>
          <path class="cls-1" d="m54.75,27.34l-12.55,12.55,4.56,4.56,5.57-5.57c1.7-1.7,2.63-4.04,2.56-6.45l-.14-5.08Z"/>
          <path class="cls-1" d="m54.82.02l-4.66,4.66c-1.53,1.53-2.37,3.61-2.35,5.77l.06,5.69,4.68-4.68c1.53-1.53,2.38-3.63,2.35-5.8l-.08-5.64Z"/>
          <path class="cls-1" d="m63.77,4.71l-13.44,13.44c-1.55,1.55-2.42,3.65-2.42,5.82v5.71s13.47-13.46,13.47-13.46c1.56-1.56,2.43-3.67,2.42-5.85l-.02-5.66Z"/>
          <path class="cls-1" d="m73.59,8.5l-13.44,13.44c-1.55,1.55-2.42,3.65-2.42,5.82v5.71s13.47-13.46,13.47-13.46c1.56-1.56,2.43-3.67,2.42-5.85l-.02-5.66Z"/>
          <path class="cls-1" d="m38.78,27.32l12.55,12.55-4.56,4.56-5.57-5.57c-1.7-1.7-2.63-4.04-2.56-6.45l.14-5.08Z"/>
          <path class="cls-1" d="m38.71,0l4.66,4.66c1.53,1.53,2.37,3.61,2.35,5.77l-.06,5.69-4.68-4.68c-1.53-1.53-2.38-3.63-2.35-5.8l.08-5.64Z"/>
          <path class="cls-1" d="m29.76,4.69l13.44,13.44c1.55,1.55,2.42,3.65,2.42,5.82v5.71s-13.47-13.46-13.47-13.46c-1.56-1.56-2.43-3.67-2.42-5.85l.02-5.66Z"/>
          <path class="cls-1" d="m66.13,38.72l-12.55,12.55-4.56-4.56,5.57-5.57c1.7-1.7,4.04-2.63,6.45-2.56l5.08.14Z"/>
          <path class="cls-1" d="m93.45,38.65l-4.66,4.66c-1.53,1.53-3.61,2.37-5.77,2.35l-5.69-.06,4.68-4.68c1.53-1.53,3.63-2.38,5.8-2.35l5.64.08Z"/>
          <path class="cls-1" d="m88.76,29.7l-13.44,13.44c-1.55,1.55-3.65,2.42-5.82,2.42h-5.71s13.46-13.47,13.46-13.47c1.56-1.56,3.67-2.43,5.85-2.42l5.66.02Z"/>
          <path class="cls-1" d="m84.97,19.87l-13.44,13.44c-1.55,1.55-3.65,2.42-5.82,2.42h-5.71s13.46-13.47,13.46-13.47c1.56-1.56,3.67-2.43,5.85-2.42l5.66.02Z"/>
          <path class="cls-1" d="m66.15,54.68l-12.55-12.55-4.56,4.56,5.57,5.57c1.7,1.7,4.04,2.63,6.45,2.56l5.08-.14Z"/>
          <path class="cls-1" d="m93.46,54.75l-4.66-4.66c-1.53-1.53-3.61-2.37-5.77-2.35l-5.69.06,4.68,4.68c1.53,1.53,3.63,2.38,5.8,2.35l5.64-.08Z"/>
          <path class="cls-1" d="m88.77,63.7l-13.44-13.44c-1.55-1.55-3.65-2.42-5.82-2.42h-5.71s13.46,13.47,13.46,13.47c1.56,1.56,3.67,2.43,5.85,2.42l5.66-.02Z"/>
          <path class="cls-1" d="m84.99,73.53l-13.44-13.44c-1.55-1.55-3.65-2.42-5.82-2.42h-5.71s13.46,13.47,13.46,13.47c1.56,1.56,3.67,2.43,5.85,2.42l5.66-.02Z"/>
        </g>
      </g>
      <g>
        <g>
          <path class="cls-1" d="m98.91,49.63c0-5.79,3.7-10.5,9.65-10.5,4.71,0,7.83,2.7,8.53,6.95h-3.16c-.46-2.7-2.35-4.36-5.36-4.36-4.24,0-6.44,3.51-6.44,7.91s2.2,7.87,6.44,7.87c3.24,0,5.17-1.85,5.44-4.94h3.09c-.42,4.78-3.55,7.56-8.53,7.56-5.94,0-9.65-4.71-9.65-10.5Z"/>
          <path class="cls-1" d="m118.36,49.63c0-5.79,3.7-10.5,9.65-10.5s9.61,4.71,9.61,10.5-3.63,10.5-9.61,10.5-9.65-4.71-9.65-10.5Zm16.05,0c0-4.4-2.16-7.91-6.41-7.91s-6.44,3.51-6.44,7.91,2.2,7.87,6.44,7.87,6.41-3.47,6.41-7.87Z"/>
          <path class="cls-1" d="m143.29,42.26h.08c1.43-1.89,3.43-3.09,6.33-3.09,4.17,0,6.72,2.28,6.72,6.41v14.01h-3.13v-13.74c0-2.59-1.7-4.05-4.52-4.05-3.16,0-5.48,2.24-5.48,5.52v12.27h-3.13v-19.95h3.13v2.62Z"/>
          <path class="cls-1" d="m158.69,53.11h3.2c.42,3.47,2.74,4.44,5.71,4.44,3.28,0,4.63-1.43,4.63-3.28,0-2.24-1.54-2.82-5.21-3.59-3.94-.81-7.45-1.62-7.45-5.98,0-3.32,2.55-5.48,7.18-5.48,4.94,0,7.37,2.35,7.83,6.25h-3.2c-.31-2.62-1.74-3.78-4.71-3.78s-4.01,1.27-4.01,2.86c0,2.16,1.93,2.59,5.36,3.28,4.01.81,7.37,1.7,7.37,6.29,0,4.01-3.28,6.06-7.87,6.06-5.48,0-8.53-2.59-8.84-7.06Z"/>
          <path class="cls-1" d="m177.1,49.63c0-5.79,3.7-10.5,9.65-10.5,4.71,0,7.83,2.7,8.53,6.95h-3.16c-.46-2.7-2.35-4.36-5.36-4.36-4.24,0-6.44,3.51-6.44,7.91s2.2,7.87,6.44,7.87c3.24,0,5.17-1.85,5.44-4.94h3.09c-.42,4.78-3.55,7.56-8.53,7.56-5.94,0-9.65-4.71-9.65-10.5Z"/>
          <path class="cls-1" d="m197.67,39.64h3.12v19.95h-3.12v-19.95Z"/>
          <path class="cls-1" d="m203.35,49.63c0-5.79,3.7-10.5,9.65-10.5s9.61,4.71,9.61,10.5-3.63,10.5-9.61,10.5-9.65-4.71-9.65-10.5Zm16.05,0c0-4.4-2.16-7.91-6.41-7.91s-6.44,3.51-6.44,7.91,2.2,7.87,6.44,7.87,6.41-3.47,6.41-7.87Z"/>
          <path class="cls-1" d="m237.85,59.59v-2.74h-.08c-1.43,1.93-3.12,3.2-6.02,3.2-4.09,0-6.72-2.47-6.72-6.6v-13.81h3.13v13.74c0,2.59,1.66,4.09,4.48,4.09,3.16,0,5.21-2.39,5.21-5.56v-12.27h3.13v19.95h-3.13Z"/>
          <path class="cls-1" d="m243.37,53.11h3.2c.42,3.47,2.74,4.44,5.71,4.44,3.28,0,4.63-1.43,4.63-3.28,0-2.24-1.54-2.82-5.21-3.59-3.94-.81-7.45-1.62-7.45-5.98,0-3.32,2.55-5.48,7.18-5.48,4.94,0,7.37,2.35,7.83,6.25h-3.2c-.31-2.62-1.74-3.78-4.71-3.78s-4.01,1.27-4.01,2.86c0,2.16,1.93,2.59,5.36,3.28,4.01.81,7.37,1.7,7.37,6.29,0,4.01-3.28,6.06-7.87,6.06-5.48,0-8.53-2.59-8.84-7.06Z"/>
          <path class="cls-1" d="m266.95,49.63c0-5.79,3.7-10.5,9.65-10.5,4.71,0,7.83,2.7,8.53,6.95h-3.16c-.46-2.7-2.35-4.36-5.36-4.36-4.24,0-6.44,3.51-6.44,7.91s2.2,7.87,6.44,7.87c3.24,0,5.17-1.85,5.44-4.94h3.09c-.42,4.78-3.55,7.56-8.53,7.56-5.94,0-9.65-4.71-9.65-10.5Z"/>
          <path class="cls-1" d="m286.4,49.63c0-5.79,3.7-10.5,9.65-10.5s9.61,4.71,9.61,10.5-3.63,10.5-9.61,10.5-9.65-4.71-9.65-10.5Zm16.05,0c0-4.4-2.16-7.91-6.41-7.91s-6.44,3.51-6.44,7.91,2.2,7.87,6.44,7.87,6.41-3.47,6.41-7.87Z"/>
          <path class="cls-1" d="m308.32,33.58l3.13-1.58v27.59h-3.13v-26.01Z"/>
          <path class="cls-1" d="m315.34,33.58l3.13-1.58v27.59h-3.13v-26.01Z"/>
          <path class="cls-1" d="m321.13,49.63c0-5.79,3.78-10.5,9.45-10.5,5.98,0,9.19,4.63,9.19,11.23h-15.44c.23,4.05,2.43,7.14,6.44,7.14,2.89,0,4.82-1.39,5.52-4.09h3.05c-.93,4.28-4.05,6.71-8.57,6.71-6.1,0-9.65-4.71-9.65-10.5Zm3.28-1.62h12c-.19-3.98-2.24-6.41-5.83-6.41s-5.71,2.78-6.17,6.41Z"/>
          <path class="cls-1" d="m341.12,49.63c0-5.79,3.7-10.5,9.65-10.5,4.71,0,7.83,2.7,8.53,6.95h-3.16c-.46-2.7-2.35-4.36-5.36-4.36-4.24,0-6.44,3.51-6.44,7.91s2.2,7.87,6.44,7.87c3.24,0,5.17-1.85,5.44-4.94h3.09c-.42,4.78-3.55,7.56-8.53,7.56-5.94,0-9.65-4.71-9.65-10.5Z"/>
          <path class="cls-1" d="m360.42,39.64h2.89v-6.29h3.13v6.29h3.86v2.55h-3.86v12.97c0,1.39.73,1.85,2.01,1.85.62,0,1.31-.15,1.66-.27h.12v2.7c-.73.16-1.58.27-2.51.27-2.55,0-4.4-1.04-4.4-3.86v-13.66h-2.89v-2.55Z"/>
          <path class="cls-1" d="m372.97,39.64h3.12v19.95h-3.12v-19.95Z"/>
          <path class="cls-1" d="m377.71,39.64h3.36l4.13,12.66c.58,1.78,1.31,4.21,1.31,4.21h.08s.73-2.47,1.31-4.21l4.21-12.66h3.24l-7.18,19.95h-3.47l-6.98-19.95Z"/>
          <path class="cls-1" d="m395.47,49.63c0-5.79,3.78-10.5,9.45-10.5,5.98,0,9.19,4.63,9.19,11.23h-15.44c.23,4.05,2.43,7.14,6.44,7.14,2.89,0,4.82-1.39,5.52-4.09h3.05c-.93,4.28-4.05,6.71-8.57,6.71-6.1,0-9.65-4.71-9.65-10.5Zm3.28-1.62h12c-.19-3.98-2.24-6.41-5.83-6.41s-5.71,2.78-6.17,6.41Z"/>
        </g>
        <path class="cls-1" d="m205.62,34.5h-3.23c-1.06,0-2.07.42-2.82,1.16l-1.95,1.95h3.25c1.06,0,2.08-.42,2.83-1.17l1.93-1.94Z"/>
        <path class="cls-1" d="m380.9,34.5h-3.23c-1.06,0-2.07.42-2.82,1.16l-1.95,1.95h3.25c1.06,0,2.08-.42,2.83-1.17l1.93-1.94Z"/>
      </g>
    </g>
  </g>
</svg>