<?xml version="1.0" encoding="UTF-8"?>
<svg id="Layer_2" data-name="Layer 2" xmlns="http://www.w3.org/2000/svg" viewBox="0 0 416.48 94">
  <defs>
    <style>
      .cls-1 {
        fill: #282827;
      }

      .cls-2 {
        fill: #211e1f;
      }
    </style>
  </defs>
  <g id="Layer_1-2" data-name="Layer 1">
    <g>
      <g>
        <g>
          <g>
            <path class="cls-1" d="m8.53,20.05l13.52,13.52c1.56,1.56,3.67,2.44,5.86,2.43h5.74s-13.54-13.54-13.54-13.54c-1.57-1.57-3.69-2.44-5.89-2.43l-5.69.02Z"/>
            <path class="cls-1" d="m27.49,55.06l12.62-12.62,4.58,4.58-5.6,5.6c-1.71,1.71-4.06,2.65-6.49,2.58l-5.11-.14Z"/>
            <path class="cls-1" d="m.02,55.13l4.69-4.69c1.54-1.54,3.63-2.39,5.8-2.36l5.72.06-4.71,4.71c-1.54,1.54-3.65,2.39-5.83,2.36l-5.67-.08Z"/>
            <path class="cls-1" d="m4.74,64.13l13.52-13.52c1.56-1.56,3.67-2.44,5.86-2.43h5.74s-13.54,13.54-13.54,13.54c-1.57,1.57-3.69,2.44-5.89,2.43l-5.69-.02Z"/>
            <path class="cls-1" d="m8.54,74.01l13.52-13.52c1.56-1.56,3.67-2.44,5.86-2.43h5.74s-13.54,13.54-13.54,13.54c-1.57,1.57-3.69,2.44-5.89,2.43l-5.69-.02Z"/>
            <path class="cls-1" d="m27.48,39l12.62,12.62,4.58-4.58-5.6-5.6c-1.71-1.71-4.06-2.65-6.49-2.58l-5.11.14Z"/>
            <path class="cls-1" d="m0,38.93l4.69,4.69c1.54,1.54,3.63,2.39,5.8,2.36l5.72-.06-4.71-4.71c-1.54-1.54-3.65-2.39-5.83-2.36l-5.67.08Z"/>
            <path class="cls-1" d="m4.72,29.93l13.52,13.52c1.56,1.56,3.67,2.44,5.86,2.43h5.74s-13.54-13.54-13.54-13.54c-1.57-1.57-3.69-2.44-5.89-2.43l-5.69.02Z"/>
            <path class="cls-1" d="m38.94,66.51l12.62-12.62-4.58-4.58-5.6,5.6c-1.71,1.71-2.65,4.06-2.58,6.49l.14,5.11Z"/>
            <path class="cls-1" d="m38.87,93.98l4.69-4.69c1.54-1.54,2.39-3.63,2.36-5.8l-.06-5.72-4.71,4.71c-1.54,1.54-2.39,3.65-2.36,5.83l.08,5.67Z"/>
            <path class="cls-1" d="m29.87,89.26l13.52-13.52c1.56-1.56,2.44-3.67,2.43-5.86v-5.74s-13.54,13.54-13.54,13.54c-1.57,1.57-2.44,3.69-2.43,5.89l.02,5.69Z"/>
            <path class="cls-1" d="m19.99,85.46l13.52-13.52c1.56-1.56,2.44-3.67,2.43-5.86v-5.74s-13.54,13.54-13.54,13.54c-1.57,1.57-2.44,3.69-2.43,5.89l.02,5.69Z"/>
            <path class="cls-1" d="m55,66.52l-12.62-12.62,4.58-4.58,5.6,5.6c1.71,1.71,2.65,4.06,2.58,6.49l-.14,5.11Z"/>
            <path class="cls-1" d="m55.07,94l-4.69-4.69c-1.54-1.54-2.39-3.63-2.36-5.8l.06-5.72,4.71,4.71c1.54,1.54,2.39,3.65,2.36,5.83l-.08,5.67Z"/>
            <path class="cls-1" d="m64.07,89.28l-13.52-13.52c-1.56-1.56-2.44-3.67-2.43-5.86v-5.74s13.54,13.54,13.54,13.54c1.57,1.57,2.44,3.69,2.43,5.89l-.02,5.69Z"/>
            <path class="cls-1" d="m73.95,85.47l-13.52-13.52c-1.56-1.56-2.44-3.67-2.43-5.86v-5.74s13.54,13.54,13.54,13.54c1.57,1.57,2.44,3.69,2.43,5.89l-.02,5.69Z"/>
          </g>
          <g>
            <path class="cls-1" d="m20.05,8.53l13.52,13.52c1.56,1.56,2.44,3.67,2.43,5.86v5.74s-13.54-13.54-13.54-13.54c-1.57-1.57-2.44-3.69-2.43-5.89l.02-5.69Z"/>
            <path class="cls-1" d="m55.06,27.49l-12.62,12.62,4.58,4.58,5.6-5.6c1.71-1.71,2.65-4.06,2.58-6.49l-.14-5.11Z"/>
            <path class="cls-1" d="m55.13.02l-4.69,4.69c-1.54,1.54-2.39,3.63-2.36,5.8l.06,5.72,4.71-4.71c1.54-1.54,2.39-3.65,2.36-5.83l-.08-5.67Z"/>
            <path class="cls-1" d="m64.13,4.74l-13.52,13.52c-1.56,1.56-2.44,3.67-2.43,5.86v5.74s13.54-13.54,13.54-13.54c1.57-1.57,2.44-3.69,2.43-5.89l-.02-5.69Z"/>
            <path class="cls-1" d="m74.01,8.54l-13.52,13.52c-1.56,1.56-2.44,3.67-2.43,5.86v5.74s13.54-13.54,13.54-13.54c1.57-1.57,2.44-3.69,2.43-5.89l-.02-5.69Z"/>
            <path class="cls-1" d="m39,27.48l12.62,12.62-4.58,4.58-5.6-5.6c-1.71-1.71-2.65-4.06-2.58-6.49l.14-5.11Z"/>
            <path class="cls-1" d="m38.93,0l4.69,4.69c1.54,1.54,2.39,3.63,2.36,5.8l-.06,5.72-4.71-4.71c-1.54-1.54-2.39-3.65-2.36-5.83l.08-5.67Z"/>
            <path class="cls-1" d="m29.93,4.72l13.52,13.52c1.56,1.56,2.44,3.67,2.43,5.86v5.74s-13.54-13.54-13.54-13.54c-1.57-1.57-2.44-3.69-2.43-5.89l.02-5.69Z"/>
            <path class="cls-1" d="m66.51,38.94l-12.62,12.62-4.58-4.58,5.6-5.6c1.71-1.71,4.06-2.65,6.49-2.58l5.11.14Z"/>
            <path class="cls-1" d="m93.98,38.87l-4.69,4.69c-1.54,1.54-3.63,2.39-5.8,2.36l-5.72-.06,4.71-4.71c1.54-1.54,3.65-2.39,5.83-2.36l5.67.08Z"/>
            <path class="cls-1" d="m89.26,29.87l-13.52,13.52c-1.56,1.56-3.67,2.44-5.86,2.43h-5.74s13.54-13.54,13.54-13.54c1.57-1.57,3.69-2.44,5.89-2.43l5.69.02Z"/>
            <path class="cls-1" d="m85.46,19.99l-13.52,13.52c-1.56,1.56-3.67,2.44-5.86,2.43h-5.74s13.54-13.54,13.54-13.54c1.57-1.57,3.69-2.44,5.89-2.43l5.69.02Z"/>
            <path class="cls-1" d="m66.52,55l-12.62-12.62-4.58,4.58,5.6,5.6c1.71,1.71,4.06,2.65,6.49,2.58l5.11-.14Z"/>
            <path class="cls-1" d="m94,55.07l-4.69-4.69c-1.54-1.54-3.63-2.39-5.8-2.36l-5.72.06,4.71,4.71c1.54,1.54,3.65,2.39,5.83,2.36l5.67-.08Z"/>
            <path class="cls-1" d="m89.28,64.07l-13.52-13.52c-1.56-1.56-3.67-2.44-5.86-2.43h-5.74s13.54,13.54,13.54,13.54c1.57,1.57,3.69,2.44,5.89,2.43l5.69-.02Z"/>
            <path class="cls-1" d="m85.47,73.95l-13.52-13.52c-1.56-1.56-3.67-2.44-5.86-2.43h-5.74s13.54,13.54,13.54,13.54c1.57,1.57,3.69,2.44,5.89,2.43l5.69-.02Z"/>
          </g>
        </g>
        <g>
          <g>
            <path class="cls-1" d="m99.48,49.92c0-5.82,3.73-10.56,9.7-10.56,4.73,0,7.88,2.72,8.58,6.99h-3.18c-.47-2.72-2.37-4.38-5.39-4.38-4.27,0-6.48,3.53-6.48,7.96s2.21,7.92,6.48,7.92c3.26,0,5.2-1.86,5.47-4.97h3.1c-.43,4.81-3.57,7.61-8.58,7.61-5.98,0-9.7-4.73-9.7-10.56Z"/>
            <path class="cls-1" d="m119.04,49.92c0-5.82,3.73-10.56,9.7-10.56s9.66,4.73,9.66,10.56-3.65,10.56-9.66,10.56-9.7-4.73-9.7-10.56Zm16.15,0c0-4.42-2.17-7.96-6.44-7.96s-6.48,3.53-6.48,7.96,2.21,7.92,6.48,7.92,6.44-3.49,6.44-7.92Z"/>
            <path class="cls-1" d="m144.11,42.5h.08c1.44-1.9,3.45-3.1,6.36-3.1,4.19,0,6.75,2.29,6.75,6.44v14.09h-3.14v-13.82c0-2.6-1.71-4.07-4.54-4.07-3.18,0-5.51,2.25-5.51,5.55v12.34h-3.14v-20.07h3.14v2.64Z"/>
            <path class="cls-1" d="m159.6,53.41h3.22c.43,3.49,2.76,4.46,5.75,4.46,3.3,0,4.66-1.44,4.66-3.3,0-2.25-1.55-2.83-5.24-3.61-3.96-.82-7.49-1.63-7.49-6.02,0-3.34,2.56-5.51,7.22-5.51,4.97,0,7.41,2.37,7.88,6.29h-3.22c-.31-2.64-1.75-3.8-4.73-3.8s-4.04,1.28-4.04,2.87c0,2.17,1.94,2.6,5.39,3.3,4.04.81,7.41,1.71,7.41,6.33,0,4.04-3.3,6.09-7.92,6.09-5.51,0-8.58-2.6-8.89-7.1Z"/>
            <path class="cls-1" d="m178.12,49.92c0-5.82,3.73-10.56,9.7-10.56,4.73,0,7.88,2.72,8.58,6.99h-3.18c-.47-2.72-2.37-4.38-5.39-4.38-4.27,0-6.48,3.53-6.48,7.96s2.21,7.92,6.48,7.92c3.26,0,5.2-1.86,5.47-4.97h3.1c-.43,4.81-3.57,7.61-8.58,7.61-5.98,0-9.7-4.73-9.7-10.56Z"/>
            <path class="cls-1" d="m198.81,39.87h3.14v20.07h-3.14v-20.07Z"/>
            <path class="cls-1" d="m204.51,49.92c0-5.82,3.73-10.56,9.7-10.56s9.66,4.73,9.66,10.56-3.65,10.56-9.66,10.56-9.7-4.73-9.7-10.56Zm16.15,0c0-4.42-2.17-7.96-6.44-7.96s-6.48,3.53-6.48,7.96,2.21,7.92,6.48,7.92,6.44-3.49,6.44-7.92Z"/>
            <path class="cls-1" d="m239.21,59.93v-2.76h-.08c-1.44,1.94-3.14,3.22-6.05,3.22-4.11,0-6.75-2.48-6.75-6.64v-13.89h3.14v13.82c0,2.6,1.67,4.12,4.5,4.12,3.18,0,5.24-2.41,5.24-5.59v-12.34h3.14v20.07h-3.14Z"/>
            <path class="cls-1" d="m244.76,53.41h3.22c.43,3.49,2.76,4.46,5.75,4.46,3.3,0,4.66-1.44,4.66-3.3,0-2.25-1.55-2.83-5.24-3.61-3.96-.82-7.49-1.63-7.49-6.02,0-3.34,2.56-5.51,7.22-5.51,4.97,0,7.41,2.37,7.88,6.29h-3.22c-.31-2.64-1.75-3.8-4.73-3.8s-4.04,1.28-4.04,2.87c0,2.17,1.94,2.6,5.39,3.3,4.04.81,7.41,1.71,7.41,6.33,0,4.04-3.3,6.09-7.92,6.09-5.51,0-8.58-2.6-8.89-7.1Z"/>
            <path class="cls-1" d="m268.48,49.92c0-5.82,3.73-10.56,9.7-10.56,4.73,0,7.88,2.72,8.58,6.99h-3.18c-.47-2.72-2.37-4.38-5.39-4.38-4.27,0-6.48,3.53-6.48,7.96s2.21,7.92,6.48,7.92c3.26,0,5.2-1.86,5.47-4.97h3.1c-.43,4.81-3.57,7.61-8.58,7.61-5.98,0-9.7-4.73-9.7-10.56Z"/>
            <path class="cls-1" d="m288.04,49.92c0-5.82,3.73-10.56,9.7-10.56s9.66,4.73,9.66,10.56-3.65,10.56-9.66,10.56-9.7-4.73-9.7-10.56Zm16.15,0c0-4.42-2.17-7.96-6.44-7.96s-6.48,3.53-6.48,7.96,2.21,7.92,6.48,7.92,6.44-3.49,6.44-7.92Z"/>
            <path class="cls-1" d="m310.09,33.77l3.14-1.59v27.75h-3.14v-26.16Z"/>
            <path class="cls-1" d="m317.15,33.77l3.14-1.59v27.75h-3.14v-26.16Z"/>
            <path class="cls-1" d="m322.97,49.92c0-5.82,3.8-10.56,9.51-10.56,6.02,0,9.24,4.66,9.24,11.29h-15.52c.23,4.07,2.44,7.18,6.48,7.18,2.91,0,4.85-1.4,5.55-4.11h3.07c-.93,4.31-4.08,6.75-8.62,6.75-6.13,0-9.7-4.73-9.7-10.56Zm3.3-1.63h12.07c-.19-4-2.25-6.44-5.86-6.44s-5.74,2.8-6.21,6.44Z"/>
            <path class="cls-1" d="m343.08,49.92c0-5.82,3.73-10.56,9.7-10.56,4.73,0,7.88,2.72,8.58,6.99h-3.18c-.47-2.72-2.37-4.38-5.39-4.38-4.27,0-6.48,3.53-6.48,7.96s2.21,7.92,6.48,7.92c3.26,0,5.2-1.86,5.47-4.97h3.1c-.43,4.81-3.57,7.61-8.58,7.61-5.98,0-9.7-4.73-9.7-10.56Z"/>
            <path class="cls-1" d="m362.49,39.87h2.91v-6.33h3.14v6.33h3.88v2.56h-3.88v13.04c0,1.4.74,1.86,2.02,1.86.62,0,1.32-.15,1.67-.27h.12v2.72c-.74.16-1.59.27-2.52.27-2.56,0-4.42-1.05-4.42-3.88v-13.74h-2.91v-2.56Z"/>
            <path class="cls-1" d="m375.1,39.87h3.14v20.07h-3.14v-20.07Z"/>
            <path class="cls-1" d="m379.88,39.87h3.38l4.15,12.73c.58,1.79,1.32,4.23,1.32,4.23h.08s.74-2.48,1.32-4.23l4.23-12.73h3.26l-7.22,20.07h-3.49l-7.02-20.07Z"/>
            <path class="cls-1" d="m397.73,49.92c0-5.82,3.8-10.56,9.51-10.56,6.02,0,9.24,4.66,9.24,11.29h-15.52c.23,4.07,2.44,7.18,6.48,7.18,2.91,0,4.85-1.4,5.55-4.11h3.07c-.93,4.31-4.08,6.75-8.62,6.75-6.13,0-9.7-4.73-9.7-10.56Zm3.3-1.63h12.07c-.19-4-2.25-6.44-5.86-6.44s-5.74,2.8-6.21,6.44Z"/>
          </g>
          <path class="cls-1" d="m206.8,34.7h-3.25c-1.07,0-2.09.42-2.83,1.17l-1.96,1.96h3.27c1.07,0,2.1-.43,2.84-1.18l1.94-1.95Z"/>
          <path class="cls-1" d="m383.08,34.7h-3.25c-1.07,0-2.09.42-2.83,1.17l-1.96,1.96h3.27c1.07,0,2.1-.43,2.84-1.18l1.94-1.95Z"/>
        </g>
      </g>
      <g>
        <path class="cls-2" d="m209.43,78.3l-.41-1.1h-2.78l-.41,1.1h-1.57l2.5-6.49h1.73l2.5,6.49h-1.57Zm-1.8-5.11l-1.01,2.79h2.02l-1.01-2.79Z"/>
        <path class="cls-2" d="m217.69,75.06c0-2.05,1.56-3.36,3.47-3.36,1.34,0,2.19.68,2.68,1.45l-1.14.62c-.3-.46-.86-.85-1.54-.85-1.19,0-2.04.9-2.04,2.13s.86,2.13,2.04,2.13c.57,0,1.11-.25,1.37-.5v-.78h-1.71v-1.21h3.1v2.49c-.66.74-1.59,1.22-2.75,1.22-1.91,0-3.47-1.31-3.47-3.36Z"/>
        <path class="cls-2" d="m226.65,75.06c0-1.96,1.43-3.36,3.4-3.36s3.39,1.4,3.39,3.36-1.43,3.36-3.39,3.36-3.4-1.4-3.4-3.36Zm5.36,0c0-1.22-.77-2.13-1.97-2.13s-1.98.91-1.98,2.13.77,2.13,1.98,2.13,1.97-.92,1.97-2.13Z"/>
        <path class="cls-2" d="m236.36,78.3v-6.49h2.56c2.03,0,3.45,1.29,3.45,3.24s-1.41,3.25-3.44,3.25h-2.57Zm4.59-3.25c0-1.14-.7-2.02-2.02-2.02h-1.19v4.06h1.18c1.28,0,2.03-.93,2.03-2.03Z"/>
        <path class="cls-2" d="m248.97,78.3l-1.28-2.31h-1.01v2.31h-1.38v-6.49h3.04c1.35,0,2.19.89,2.19,2.09,0,1.14-.73,1.76-1.43,1.93l1.47,2.47h-1.6Zm.14-4.41c0-.54-.42-.87-.96-.87h-1.46v1.75h1.46c.54,0,.96-.33.96-.89Z"/>
        <path class="cls-2" d="m253.52,78.3v-6.49h4.59v1.22h-3.21v1.36h3.14v1.22h-3.14v1.48h3.21v1.22h-4.59Z"/>
        <path class="cls-2" d="m260.56,77.77l.6-1.05c.25.24.58.47,1.03.47.61,0,1.01-.42,1.01-1.04v-4.34h1.39v4.36c0,1.53-.96,2.25-2.29,2.25-.66,0-1.28-.19-1.75-.64Z"/>
        <path class="cls-2" d="m272.27,78.3v-6.49h2.56c2.03,0,3.45,1.29,3.45,3.24s-1.41,3.25-3.44,3.25h-2.57Zm4.59-3.25c0-1.14-.7-2.02-2.02-2.02h-1.19v4.06h1.18c1.28,0,2.03-.93,2.03-2.03Z"/>
        <path class="cls-2" d="m281.21,78.3v-6.49h4.59v1.22h-3.21v1.36h3.14v1.22h-3.14v1.48h3.21v1.22h-4.59Z"/>
        <path class="cls-2" d="m288.39,77.38l.76-1.08c.46.48,1.17.89,2.06.89.77,0,1.13-.34,1.13-.72,0-1.13-3.74-.34-3.74-2.78,0-1.08.93-1.98,2.46-1.98,1.03,0,1.89.31,2.53.91l-.77,1.03c-.53-.49-1.23-.71-1.89-.71-.58,0-.91.25-.91.64,0,1.02,3.73.33,3.73,2.76,0,1.19-.86,2.08-2.6,2.08-1.26,0-2.15-.42-2.76-1.03Z"/>
        <path class="cls-2" d="m296.63,78.3v-6.49h1.38v6.49h-1.38Z"/>
        <path class="cls-2" d="m300.94,75.06c0-2.05,1.56-3.36,3.46-3.36,1.34,0,2.19.68,2.68,1.45l-1.14.62c-.3-.46-.86-.85-1.54-.85-1.19,0-2.04.9-2.04,2.13s.86,2.13,2.04,2.13c.57,0,1.11-.25,1.37-.5v-.78h-1.71v-1.21h3.1v2.49c-.66.74-1.59,1.22-2.76,1.22-1.91,0-3.46-1.31-3.46-3.36Z"/>
        <path class="cls-2" d="m314.69,78.3l-3.09-4.23v4.23h-1.38v-6.49h1.42l3.01,4.08v-4.08h1.38v6.49h-1.33Z"/>
        <path class="cls-2" d="m323.65,78.3v-6.49h1.39v5.28h2.74v1.22h-4.14Z"/>
        <path class="cls-2" d="m335.16,78.3l-.41-1.1h-2.78l-.41,1.1h-1.57l2.5-6.49h1.73l2.5,6.49h-1.57Zm-1.8-5.11l-1.01,2.79h2.02l-1.01-2.79Z"/>
        <path class="cls-2" d="m339.28,78.3v-6.49h3.42c1.24,0,1.87.79,1.87,1.65,0,.81-.51,1.36-1.12,1.49.7.11,1.25.78,1.25,1.59,0,.98-.64,1.76-1.89,1.76h-3.52Zm3.87-4.59c0-.4-.29-.68-.76-.68h-1.73v1.36h1.73c.47,0,.76-.26.76-.68Zm.13,2.64c0-.41-.29-.74-.83-.74h-1.79v1.48h1.79c.52,0,.83-.27.83-.74Z"/>
        <path class="cls-2" d="m352.14,78.3v-6.49h1.38v6.49h-1.38Z"/>
        <path class="cls-2" d="m361.23,78.3l-3.09-4.23v4.23h-1.38v-6.49h1.42l3.01,4.08v-4.08h1.38v6.49h-1.33Z"/>
        <path class="cls-2" d="m365.8,78.3v-6.49h1.38v6.49h-1.38Z"/>
        <path class="cls-2" d="m371.92,78.3v-5.28h-1.9v-1.22h5.18v1.22h-1.89v5.28h-1.39Z"/>
        <path class="cls-2" d="m378.03,78.3v-6.49h1.38v6.49h-1.38Z"/>
        <path class="cls-2" d="m387.14,78.3l-.41-1.1h-2.78l-.41,1.1h-1.57l2.5-6.49h1.73l2.5,6.49h-1.57Zm-1.8-5.11l-1.01,2.79h2.02l-1.01-2.79Z"/>
        <path class="cls-2" d="m392.14,78.3v-5.28h-1.9v-1.22h5.18v1.22h-1.89v5.28h-1.39Z"/>
        <path class="cls-2" d="m398.25,78.3v-6.49h1.38v6.49h-1.38Z"/>
        <path class="cls-2" d="m404.69,78.3l-2.5-6.49h1.57l1.8,4.98,1.8-4.98h1.57l-2.5,6.49h-1.73Z"/>
        <path class="cls-2" d="m411.48,78.3v-6.49h4.59v1.22h-3.21v1.36h3.14v1.22h-3.14v1.48h3.21v1.22h-4.59Z"/>
      </g>
    </g>
  </g>
</svg>