<?xml version="1.0" encoding="UTF-8"?>
<svg id="Layer_2" data-name="Layer 2" xmlns="http://www.w3.org/2000/svg" viewBox="0 0 31.74 31.65">
  <defs>
    <style>
      .cls-1 {
        fill: #fff;
      }

      .cls-2 {
        fill: #00d2af;
      }
    </style>
  </defs>
  <g id="Layer_1-2" data-name="Layer 1">
    <g>
      <path class="cls-1" d="m31.5,6.51C31.26,2.22,28.52.15,24.21.03c-2.7-.07-5.4-.01-8.1-.01h0c-2.91.01-5.82-.06-8.72.03C3.2.19.52,2.48.31,6.61.02,12.36-.12,18.14.14,23.88c.24,5.42,2.57,7.53,7.97,7.68,5.55.15,11.11.08,16.66-.05,3.77-.08,6.5-2.28,6.7-6.04.33-6.31.38-12.67.03-18.97Z"/>
      <path class="cls-2" d="m26.32,3.16c-1.21-.02-2.29,1.04-2.32,2.25-.02,1.19,1.09,2.37,2.23,2.37,1.15,0,2.36-1.18,2.37-2.29.01-1.18-1.09-2.31-2.28-2.33Z"/>
      <path class="cls-2" d="m15.97,5.92c-5.46-.01-9.96,4.38-10.02,9.8-.06,5.46,4.44,9.94,10.01,9.94s9.9-4.38,9.93-9.85c.03-5.39-4.47-9.89-9.92-9.89Z"/>
    </g>
  </g>
</svg>