<?xml version="1.0" encoding="UTF-8"?>
<svg id="Layer_2" data-name="Layer 2" xmlns="http://www.w3.org/2000/svg" viewBox="0 0 31.11 26.88">
  <defs>
    <style>
      .cls-1 {
        fill: #fff;
      }
    </style>
  </defs>
  <g id="Layer_1-2" data-name="Layer 1">
    <path class="cls-1" d="m30.45,1.3c-.1-.08-.2-.17-.3-.26-.79.29-1.55.7-2.36.82-.62.09-1.46.01-1.91-.35-3.45-2.74-8.19-1.67-9.89,2.4-.53,1.27-.68,2.7-1.04,4.18-5.42-.06-9.82-2.51-13.57-6.7-1.37,3.49-.86,6.3,1.96,8.63-.08.07-.16.14-.24.21-.83-.15-1.67-.3-2.6-.46,0,3.33,2.56,4.63,4.94,6.19-.89.16-1.6.29-2.39.43,1.06,2.55,3.35,3.37,5.6,4.28-2.49,2.07-5.31,2.89-8.64,3.08.47.35.66.53.87.66,5.68,3.61,13.5,2.68,17.09.82,5.57-2.66,10.36-9.9,10.26-18.17,0-.37.35-.82.66-1.11.63-.61,1.34-1.14,2.23-1.88h-2.99c.8-.95,1.56-1.86,2.33-2.78"/>
  </g>
</svg>