<?xml version="1.0" encoding="UTF-8"?>
<svg id="Layer_2" data-name="Layer 2" xmlns="http://www.w3.org/2000/svg" viewBox="0 0 14.54 31.29">
  <defs>
    <style>
      .cls-1 {
        fill: #fff;
      }
    </style>
  </defs>
  <g id="Layer_1-2" data-name="Layer 1">
    <path class="cls-1" d="m0,10.15v5.53h3.05v15.61h6.52v-15.63h4.39c.19-1.86.38-3.66.57-5.55h-4.96c0-1.16-.03-2.25,0-3.33.04-.96.52-1.39,1.5-1.4.55,0,1.1,0,1.65,0h1.67V.03c-1.89,0-3.73-.07-5.57.01C5.89.17,3.77,1.95,3.28,4.84c-.26,1.48-.17,3.02-.23,4.54-.01.24,0,.48,0,.77H0Z"/>
  </g>
</svg>